<svg width="24" height="24" viewBox="0 0 24 24" fill="none" xmlns="http://www.w3.org/2000/svg">
<path d="M10.9951 22.4248C11.6339 22.7505 12.3661 22.7505 13.0049 22.4248C14.4088 21.709 16.6199 20.4276 18.6113 18.6152C20.6087 16.7975 22.31 14.5151 22.8438 11.8066C23.285 9.56749 22.8142 6.86911 21.1465 4.74219C19.5025 2.64547 16.6113 1 12 1C7.38874 1 4.49752 2.64547 2.85352 4.74219C1.18584 6.86911 0.714933 9.56749 1.15625 11.8066C1.69007 14.5151 3.39134 16.7975 5.38867 18.6152C7.38012 20.4276 9.59123 21.709 10.9951 22.4248Z" stroke="currentColor" stroke-width="2" stroke-linecap="round" stroke-linejoin="round"/>
<circle cx="4" cy="4" r="3" transform="matrix(-1 0 0 1 16 6)" stroke="currentColor" stroke-width="2"/>
</svg>
